<svg width="144" height="17" viewBox="0 0 144 17" fill="none" xmlns="http://www.w3.org/2000/svg">
<path d="M2.3962 16.1461H0V0.228516H6.78922C10.5547 0.228516 12.5515 2.22535 12.5515 5.36322C12.5515 8.44405 10.4406 10.555 6.73217 10.555H2.33914V16.1461H2.3962ZM6.56101 8.32994C8.90016 8.32994 10.1553 7.303 10.1553 5.30617C10.1553 3.36639 8.95721 2.33945 6.56101 2.33945H2.3962V8.27289H6.56101V8.32994Z" fill="#023563"/>
<path d="M16.8301 16.1461V0.228516H19.2263V13.9211H27.8412V16.1461H16.8301Z" fill="#023563"/>
<path d="M42.2755 12.1524H34.4593L32.8048 16.1461H30.3516L37.3119 0.228516H39.4229L46.3833 16.1461H43.93L42.2755 12.1524ZM35.3722 9.92741H41.3056L38.3389 2.90998L35.3722 9.92741Z" fill="#023563"/>
<path d="M57.1089 0C60.9885 0 64.1264 2.33914 64.7539 5.70523H62.2436C61.7302 3.76545 59.9045 2.22504 57.1089 2.22504C53.6858 2.22504 51.2325 4.67829 51.2325 8.15848C51.2325 11.6387 53.6858 14.0919 57.1089 14.0919C59.9045 14.0919 61.7302 12.6086 62.2436 10.6117H64.7539C64.1264 14.0349 61.0455 16.374 57.1089 16.374C52.3736 16.374 48.7793 12.7797 48.7793 8.15848C48.7793 3.53724 52.3165 0 57.1089 0Z" fill="#023563"/>
<path d="M69.0332 16.1461V0.228516H80.3866V2.3965H71.4294V7.01774H79.8161V9.18573H71.4294V13.9211H80.4437V16.0891H69.0332V16.1461Z" fill="#023563"/>
<path d="M93.7944 11.7528C93.7944 10.6117 92.9957 9.813 90.9989 9.41363L88.945 8.95721C85.8642 8.27259 84.3238 6.84628 84.3238 4.45008C84.3238 1.65452 86.4347 0 89.9719 0C93.338 0 95.3919 1.59747 95.6772 4.10777H93.338C93.1098 2.85262 91.8547 2.11094 89.9719 2.11094C87.9751 2.11094 86.72 2.85262 86.72 4.39303C86.72 5.70523 87.7469 6.38986 89.8578 6.84628L91.9117 7.3027C94.9355 7.98732 96.1336 9.35658 96.1336 11.6387C96.1336 14.7765 93.6803 16.317 90.2002 16.317C86.6059 16.317 84.2097 14.7195 83.9814 11.9239H86.3206C86.5488 13.4073 87.9751 14.206 90.2002 14.206C92.3681 14.206 93.7944 13.3502 93.7944 11.7528Z" fill="#023563"/>
<path d="M111.423 2.45356H106.232V16.1461H103.835V2.45356H98.6436V0.228516H111.366V2.45356H111.423Z" fill="#023563"/>
<path d="M115.132 16.1461V0.228516H126.485V2.3965H117.528V7.01774H125.915V9.18573H117.528V13.9211H126.542V16.0891H115.132V16.1461Z" fill="#023563"/>
<path d="M133.445 16.1461H131.049V0.228516H138.123C141.832 0.228516 143.886 2.22535 143.886 5.30617C143.886 7.93058 142.288 9.8133 139.493 10.3268L144 16.1461H141.261L136.811 10.4409H133.388V16.1461H133.445ZM137.838 8.27289C140.177 8.27289 141.432 7.24595 141.432 5.30617C141.432 3.42345 140.234 2.3965 137.838 2.3965H133.445V8.27289H137.838Z" fill="#023563"/>
</svg>
